solid OpenSCAD_Model
  facet normal 0.998027 0.0627909 0
    outer loop
      vertex 10.5 0 2
      vertex 10.4172 1.316 0
      vertex 10.4172 1.316 2
    endloop
  endfacet
  facet normal 0.998027 0.0627909 0
    outer loop
      vertex 10.4172 1.316 0
      vertex 10.5 0 2
      vertex 10.5 0 0
    endloop
  endfacet
  facet normal -0.998027 0.0627909 0
    outer loop
      vertex -10.5 0 0
      vertex -10.4172 1.316 2
      vertex -10.4172 1.316 0
    endloop
  endfacet
  facet normal -0.998027 0.0627909 0
    outer loop
      vertex -10.4172 1.316 2
      vertex -10.5 0 0
      vertex -10.5 0 2
    endloop
  endfacet
  facet normal 0 1 -0
    outer loop
      vertex 0.6593 10.4793 0
      vertex -0.6593 10.4793 2
      vertex 0.6593 10.4793 2
    endloop
  endfacet
  facet normal 0 1 0
    outer loop
      vertex -0.6593 10.4793 2
      vertex 0.6593 10.4793 0
      vertex -0.6593 10.4793 0
    endloop
  endfacet
  facet normal 0.684547 0.728969 -0
    outer loop
      vertex 7.65417 7.18774 0
      vertex 6.69295 8.09039 2
      vertex 7.65417 7.18774 2
    endloop
  endfacet
  facet normal 0.684547 0.728969 0
    outer loop
      vertex 6.69295 8.09039 2
      vertex 7.65417 7.18774 0
      vertex 6.69295 8.09039 0
    endloop
  endfacet
  facet normal -0.684547 0.728969 0
    outer loop
      vertex -6.69295 8.09039 0
      vertex -7.65417 7.18774 2
      vertex -6.69295 8.09039 2
    endloop
  endfacet
  facet normal -0.684547 0.728969 0
    outer loop
      vertex -7.65417 7.18774 2
      vertex -6.69295 8.09039 0
      vertex -7.65417 7.18774 0
    endloop
  endfacet
  facet normal -0.368124 0.929777 0
    outer loop
      vertex -3.24468 9.98609 0
      vertex -4.47068 9.50068 2
      vertex -3.24468 9.98609 2
    endloop
  endfacet
  facet normal -0.368124 0.929777 0
    outer loop
      vertex -4.47068 9.50068 2
      vertex -3.24468 9.98609 0
      vertex -4.47068 9.50068 0
    endloop
  endfacet
  facet normal 0.770513 -0.637424 0
    outer loop
      vertex 7.65417 -7.18774 2
      vertex 8.49468 -6.17174 0
      vertex 8.49468 -6.17174 2
    endloop
  endfacet
  facet normal 0.770513 -0.637424 0
    outer loop
      vertex 8.49468 -6.17174 0
      vertex 7.65417 -7.18774 2
      vertex 7.65417 -7.18774 0
    endloop
  endfacet
  facet normal 0.904827 0.425779 0
    outer loop
      vertex 9.76265 3.86531 2
      vertex 9.20122 5.05841 0
      vertex 9.20122 5.05841 2
    endloop
  endfacet
  facet normal 0.904827 0.425779 0
    outer loop
      vertex 9.20122 5.05841 0
      vertex 9.76265 3.86531 2
      vertex 9.76265 3.86531 0
    endloop
  endfacet
  facet normal 0.982287 0.187381 0
    outer loop
      vertex 10.4172 1.316 2
      vertex 10.1701 2.61124 0
      vertex 10.1701 2.61124 2
    endloop
  endfacet
  facet normal 0.982287 0.187381 0
    outer loop
      vertex 10.1701 2.61124 0
      vertex 10.4172 1.316 2
      vertex 10.4172 1.316 0
    endloop
  endfacet
  facet normal 0.368124 0.929777 -0
    outer loop
      vertex 4.47068 9.50068 0
      vertex 3.24468 9.98609 2
      vertex 4.47068 9.50068 2
    endloop
  endfacet
  facet normal 0.368124 0.929777 0
    outer loop
      vertex 3.24468 9.98609 2
      vertex 4.47068 9.50068 0
      vertex 3.24468 9.98609 0
    endloop
  endfacet
  facet normal 0.587785 0.809017 -0
    outer loop
      vertex 6.69295 8.09039 0
      vertex 5.62618 8.86544 2
      vertex 6.69295 8.09039 2
    endloop
  endfacet
  facet normal 0.587785 0.809017 0
    outer loop
      vertex 5.62618 8.86544 2
      vertex 6.69295 8.09039 0
      vertex 5.62618 8.86544 0
    endloop
  endfacet
  facet normal -0.904827 0.425779 0
    outer loop
      vertex -9.76265 3.86531 0
      vertex -9.20122 5.05841 2
      vertex -9.20122 5.05841 0
    endloop
  endfacet
  facet normal -0.904827 0.425779 0
    outer loop
      vertex -9.20122 5.05841 2
      vertex -9.76265 3.86531 0
      vertex -9.76265 3.86531 2
    endloop
  endfacet
  facet normal -0.844328 0.535827 0
    outer loop
      vertex -9.20122 5.05841 0
      vertex -8.49468 6.17174 2
      vertex -8.49468 6.17174 0
    endloop
  endfacet
  facet normal -0.844328 0.535827 0
    outer loop
      vertex -8.49468 6.17174 2
      vertex -9.20122 5.05841 0
      vertex -9.20122 5.05841 2
    endloop
  endfacet
  facet normal -0.951056 0.309018 0
    outer loop
      vertex -10.1701 2.61124 0
      vertex -9.76265 3.86531 2
      vertex -9.76265 3.86531 0
    endloop
  endfacet
  facet normal -0.951056 0.309018 0
    outer loop
      vertex -9.76265 3.86531 2
      vertex -10.1701 2.61124 0
      vertex -10.1701 2.61124 2
    endloop
  endfacet
  facet normal -0.587785 0.809017 0
    outer loop
      vertex -5.62618 8.86544 0
      vertex -6.69295 8.09039 2
      vertex -5.62618 8.86544 2
    endloop
  endfacet
  facet normal -0.587785 0.809017 0
    outer loop
      vertex -6.69295 8.09039 2
      vertex -5.62618 8.86544 0
      vertex -6.69295 8.09039 0
    endloop
  endfacet
  facet normal -0.125334 0.992115 0
    outer loop
      vertex -0.6593 10.4793 0
      vertex -1.9675 10.314 2
      vertex -0.6593 10.4793 2
    endloop
  endfacet
  facet normal -0.125334 0.992115 0
    outer loop
      vertex -1.9675 10.314 2
      vertex -0.6593 10.4793 0
      vertex -1.9675 10.314 0
    endloop
  endfacet
  facet normal 0.998027 -0.0627909 0
    outer loop
      vertex 10.4172 -1.316 2
      vertex 10.5 0 0
      vertex 10.5 0 2
    endloop
  endfacet
  facet normal 0.998027 -0.0627909 0
    outer loop
      vertex 10.5 0 0
      vertex 10.4172 -1.316 2
      vertex 10.4172 -1.316 0
    endloop
  endfacet
  facet normal 0.125334 -0.992115 0
    outer loop
      vertex 0.6593 -10.4793 0
      vertex 1.9675 -10.314 2
      vertex 0.6593 -10.4793 2
    endloop
  endfacet
  facet normal 0.125334 -0.992115 0
    outer loop
      vertex 1.9675 -10.314 2
      vertex 0.6593 -10.4793 0
      vertex 1.9675 -10.314 0
    endloop
  endfacet
  facet normal 0.951056 0.309018 0
    outer loop
      vertex 10.1701 2.61124 2
      vertex 9.76265 3.86531 0
      vertex 9.76265 3.86531 2
    endloop
  endfacet
  facet normal 0.951056 0.309018 0
    outer loop
      vertex 9.76265 3.86531 0
      vertex 10.1701 2.61124 2
      vertex 10.1701 2.61124 0
    endloop
  endfacet
  facet normal 0.770513 0.637424 0
    outer loop
      vertex 8.49468 6.17174 2
      vertex 7.65417 7.18774 0
      vertex 7.65417 7.18774 2
    endloop
  endfacet
  facet normal 0.770513 0.637424 0
    outer loop
      vertex 7.65417 7.18774 0
      vertex 8.49468 6.17174 2
      vertex 8.49468 6.17174 0
    endloop
  endfacet
  facet normal 0.844328 0.535827 0
    outer loop
      vertex 9.20122 5.05841 2
      vertex 8.49468 6.17174 0
      vertex 8.49468 6.17174 2
    endloop
  endfacet
  facet normal 0.844328 0.535827 0
    outer loop
      vertex 8.49468 6.17174 0
      vertex 9.20122 5.05841 2
      vertex 9.20122 5.05841 0
    endloop
  endfacet
  facet normal 0.24869 0.968583 -0
    outer loop
      vertex 3.24468 9.98609 0
      vertex 1.9675 10.314 2
      vertex 3.24468 9.98609 2
    endloop
  endfacet
  facet normal 0.24869 0.968583 0
    outer loop
      vertex 1.9675 10.314 2
      vertex 3.24468 9.98609 0
      vertex 1.9675 10.314 0
    endloop
  endfacet
  facet normal 0.125334 0.992115 -0
    outer loop
      vertex 1.9675 10.314 0
      vertex 0.6593 10.4793 2
      vertex 1.9675 10.314 2
    endloop
  endfacet
  facet normal 0.125334 0.992115 0
    outer loop
      vertex 0.6593 10.4793 2
      vertex 1.9675 10.314 0
      vertex 0.6593 10.4793 0
    endloop
  endfacet
  facet normal 0.481754 0.876306 -0
    outer loop
      vertex 5.62618 8.86544 0
      vertex 4.47068 9.50068 2
      vertex 5.62618 8.86544 2
    endloop
  endfacet
  facet normal 0.481754 0.876306 0
    outer loop
      vertex 4.47068 9.50068 2
      vertex 5.62618 8.86544 0
      vertex 4.47068 9.50068 0
    endloop
  endfacet
  facet normal -0.770513 0.637424 0
    outer loop
      vertex -8.49468 6.17174 0
      vertex -7.65417 7.18774 2
      vertex -7.65417 7.18774 0
    endloop
  endfacet
  facet normal -0.770513 0.637424 0
    outer loop
      vertex -7.65417 7.18774 2
      vertex -8.49468 6.17174 0
      vertex -8.49468 6.17174 2
    endloop
  endfacet
  facet normal -0.481754 0.876306 0
    outer loop
      vertex -4.47068 9.50068 0
      vertex -5.62618 8.86544 2
      vertex -4.47068 9.50068 2
    endloop
  endfacet
  facet normal -0.481754 0.876306 0
    outer loop
      vertex -5.62618 8.86544 2
      vertex -4.47068 9.50068 0
      vertex -5.62618 8.86544 0
    endloop
  endfacet
  facet normal 0.587785 -0.809017 0
    outer loop
      vertex 5.62618 -8.86544 0
      vertex 6.69295 -8.09039 2
      vertex 5.62618 -8.86544 2
    endloop
  endfacet
  facet normal 0.587785 -0.809017 0
    outer loop
      vertex 6.69295 -8.09039 2
      vertex 5.62618 -8.86544 0
      vertex 6.69295 -8.09039 0
    endloop
  endfacet
  facet normal 0.844328 -0.535827 0
    outer loop
      vertex 8.49468 -6.17174 2
      vertex 9.20122 -5.05841 0
      vertex 9.20122 -5.05841 2
    endloop
  endfacet
  facet normal 0.844328 -0.535827 0
    outer loop
      vertex 9.20122 -5.05841 0
      vertex 8.49468 -6.17174 2
      vertex 8.49468 -6.17174 0
    endloop
  endfacet
  facet normal 0.982287 -0.187381 0
    outer loop
      vertex 10.1701 -2.61124 2
      vertex 10.4172 -1.316 0
      vertex 10.4172 -1.316 2
    endloop
  endfacet
  facet normal 0.982287 -0.187381 0
    outer loop
      vertex 10.4172 -1.316 0
      vertex 10.1701 -2.61124 2
      vertex 10.1701 -2.61124 0
    endloop
  endfacet
  facet normal -0.844328 -0.535827 0
    outer loop
      vertex -8.49468 -6.17174 0
      vertex -9.20122 -5.05841 2
      vertex -9.20122 -5.05841 0
    endloop
  endfacet
  facet normal -0.844328 -0.535827 0
    outer loop
      vertex -9.20122 -5.05841 2
      vertex -8.49468 -6.17174 0
      vertex -8.49468 -6.17174 2
    endloop
  endfacet
  facet normal -0.904827 -0.425779 0
    outer loop
      vertex -9.20122 -5.05841 0
      vertex -9.76265 -3.86531 2
      vertex -9.76265 -3.86531 0
    endloop
  endfacet
  facet normal -0.904827 -0.425779 0
    outer loop
      vertex -9.76265 -3.86531 2
      vertex -9.20122 -5.05841 0
      vertex -9.20122 -5.05841 2
    endloop
  endfacet
  facet normal -0.951056 -0.309018 0
    outer loop
      vertex -9.76265 -3.86531 0
      vertex -10.1701 -2.61124 2
      vertex -10.1701 -2.61124 0
    endloop
  endfacet
  facet normal -0.951056 -0.309018 0
    outer loop
      vertex -10.1701 -2.61124 2
      vertex -9.76265 -3.86531 0
      vertex -9.76265 -3.86531 2
    endloop
  endfacet
  facet normal 0.684547 -0.728969 0
    outer loop
      vertex 6.69295 -8.09039 0
      vertex 7.65417 -7.18774 2
      vertex 6.69295 -8.09039 2
    endloop
  endfacet
  facet normal 0.684547 -0.728969 0
    outer loop
      vertex 7.65417 -7.18774 2
      vertex 6.69295 -8.09039 0
      vertex 7.65417 -7.18774 0
    endloop
  endfacet
  facet normal 0.368124 -0.929777 0
    outer loop
      vertex 3.24468 -9.98609 0
      vertex 4.47068 -9.50068 2
      vertex 3.24468 -9.98609 2
    endloop
  endfacet
  facet normal 0.368124 -0.929777 0
    outer loop
      vertex 4.47068 -9.50068 2
      vertex 3.24468 -9.98609 0
      vertex 4.47068 -9.50068 0
    endloop
  endfacet
  facet normal 0.24869 -0.968583 0
    outer loop
      vertex 1.9675 -10.314 0
      vertex 3.24468 -9.98609 2
      vertex 1.9675 -10.314 2
    endloop
  endfacet
  facet normal 0.24869 -0.968583 0
    outer loop
      vertex 3.24468 -9.98609 2
      vertex 1.9675 -10.314 0
      vertex 3.24468 -9.98609 0
    endloop
  endfacet
  facet normal 0 0 1
    outer loop
      vertex 4.5 0 2
      vertex 10.5 0 2
      vertex 10.4172 1.316 2
    endloop
  endfacet
  facet normal 0 0 1
    outer loop
      vertex 4.46452 0.563999 2
      vertex 10.4172 1.316 2
      vertex 10.1701 2.61124 2
    endloop
  endfacet
  facet normal 0 0 1
    outer loop
      vertex 10.5 0 2
      vertex 4.5 0 2
      vertex 10.4172 -1.316 2
    endloop
  endfacet
  facet normal 0 0 1
    outer loop
      vertex 4.35862 1.1191 2
      vertex 10.1701 2.61124 2
      vertex 9.76265 3.86531 2
    endloop
  endfacet
  facet normal -0 0 1
    outer loop
      vertex 4.46452 -0.563999 2
      vertex 10.4172 -1.316 2
      vertex 4.5 0 2
    endloop
  endfacet
  facet normal 0 0 1
    outer loop
      vertex 4.18399 1.65656 2
      vertex 9.76265 3.86531 2
      vertex 9.20122 5.05841 2
    endloop
  endfacet
  facet normal 0 0 1
    outer loop
      vertex 10.4172 -1.316 2
      vertex 4.46452 -0.563999 2
      vertex 10.1701 -2.61124 2
    endloop
  endfacet
  facet normal 0 0 1
    outer loop
      vertex 3.94338 2.16789 2
      vertex 9.20122 5.05841 2
      vertex 8.49468 6.17174 2
    endloop
  endfacet
  facet normal -0 0 1
    outer loop
      vertex 4.35862 -1.1191 2
      vertex 10.1701 -2.61124 2
      vertex 4.46452 -0.563999 2
    endloop
  endfacet
  facet normal 0 0 1
    outer loop
      vertex 3.64058 2.64503 2
      vertex 8.49468 6.17174 2
      vertex 7.65417 7.18774 2
    endloop
  endfacet
  facet normal 0 0 1
    outer loop
      vertex 10.1701 -2.61124 2
      vertex 4.35862 -1.1191 2
      vertex 9.76265 -3.86531 2
    endloop
  endfacet
  facet normal 0 0 1
    outer loop
      vertex 3.28036 3.08046 2
      vertex 7.65417 7.18774 2
      vertex 6.69295 8.09039 2
    endloop
  endfacet
  facet normal -0 0 1
    outer loop
      vertex 4.18399 -1.65656 2
      vertex 9.76265 -3.86531 2
      vertex 4.35862 -1.1191 2
    endloop
  endfacet
  facet normal 0 0 1
    outer loop
      vertex 2.86841 3.46731 2
      vertex 6.69295 8.09039 2
      vertex 5.62618 8.86544 2
    endloop
  endfacet
  facet normal 0 0 1
    outer loop
      vertex 9.76265 -3.86531 2
      vertex 4.18399 -1.65656 2
      vertex 9.20122 -5.05841 2
    endloop
  endfacet
  facet normal -0 0 1
    outer loop
      vertex 3.94338 -2.16789 2
      vertex 9.20122 -5.05841 2
      vertex 4.18399 -1.65656 2
    endloop
  endfacet
  facet normal 0 0 1
    outer loop
      vertex 2.41122 3.79947 2
      vertex 5.62618 8.86544 2
      vertex 4.47068 9.50068 2
    endloop
  endfacet
  facet normal 0 0 1
    outer loop
      vertex 10.4172 1.316 2
      vertex 4.46452 0.563999 2
      vertex 4.5 0 2
    endloop
  endfacet
  facet normal 0 0 1
    outer loop
      vertex 10.1701 2.61124 2
      vertex 4.35862 1.1191 2
      vertex 4.46452 0.563999 2
    endloop
  endfacet
  facet normal 0 0 1
    outer loop
      vertex 9.76265 3.86531 2
      vertex 4.18399 1.65656 2
      vertex 4.35862 1.1191 2
    endloop
  endfacet
  facet normal 0 0 1
    outer loop
      vertex 9.20122 5.05841 2
      vertex 3.94338 2.16789 2
      vertex 4.18399 1.65656 2
    endloop
  endfacet
  facet normal 0 0 1
    outer loop
      vertex 8.49468 6.17174 2
      vertex 3.64058 2.64503 2
      vertex 3.94338 2.16789 2
    endloop
  endfacet
  facet normal 0 0 1
    outer loop
      vertex 7.65417 7.18774 2
      vertex 3.28036 3.08046 2
      vertex 3.64058 2.64503 2
    endloop
  endfacet
  facet normal 0 0 1
    outer loop
      vertex 1.91601 4.07172 2
      vertex 4.47068 9.50068 2
      vertex 3.24468 9.98609 2
    endloop
  endfacet
  facet normal 0 0 1
    outer loop
      vertex 6.69295 8.09039 2
      vertex 2.86841 3.46731 2
      vertex 3.28036 3.08046 2
    endloop
  endfacet
  facet normal 0 0 1
    outer loop
      vertex 5.62618 8.86544 2
      vertex 2.41122 3.79947 2
      vertex 2.86841 3.46731 2
    endloop
  endfacet
  facet normal 0 0 1
    outer loop
      vertex 1.39058 4.27975 2
      vertex 3.24468 9.98609 2
      vertex 1.9675 10.314 2
    endloop
  endfacet
  facet normal 0 0 1
    outer loop
      vertex 4.47068 9.50068 2
      vertex 1.91601 4.07172 2
      vertex 2.41122 3.79947 2
    endloop
  endfacet
  facet normal 0 0 1
    outer loop
      vertex 3.24468 9.98609 2
      vertex 1.39058 4.27975 2
      vertex 1.91601 4.07172 2
    endloop
  endfacet
  facet normal 0 0 1
    outer loop
      vertex 1.9675 10.314 2
      vertex 0.843215 4.42029 2
      vertex 1.39058 4.27975 2
    endloop
  endfacet
  facet normal 0 0 1
    outer loop
      vertex 0.6593 10.4793 2
      vertex 0.843215 4.42029 2
      vertex 1.9675 10.314 2
    endloop
  endfacet
  facet normal 0 0 1
    outer loop
      vertex 0.6593 10.4793 2
      vertex 0.282557 4.49112 2
      vertex 0.843215 4.42029 2
    endloop
  endfacet
  facet normal 0 0 1
    outer loop
      vertex 0.6593 10.4793 2
      vertex -0.282557 4.49112 2
      vertex 0.282557 4.49112 2
    endloop
  endfacet
  facet normal -0 0 1
    outer loop
      vertex -0.6593 10.4793 2
      vertex -0.282557 4.49112 2
      vertex 0.6593 10.4793 2
    endloop
  endfacet
  facet normal 0 0 1
    outer loop
      vertex -0.6593 10.4793 2
      vertex -0.843215 4.42029 2
      vertex -0.282557 4.49112 2
    endloop
  endfacet
  facet normal -0 0 1
    outer loop
      vertex -1.9675 10.314 2
      vertex -0.843215 4.42029 2
      vertex -0.6593 10.4793 2
    endloop
  endfacet
  facet normal 0 0 1
    outer loop
      vertex -0.843215 4.42029 2
      vertex -1.9675 10.314 2
      vertex -1.39058 4.27975 2
    endloop
  endfacet
  facet normal -0 0 1
    outer loop
      vertex -3.24468 9.98609 2
      vertex -1.39058 4.27975 2
      vertex -1.9675 10.314 2
    endloop
  endfacet
  facet normal 0 0 1
    outer loop
      vertex -1.39058 4.27975 2
      vertex -3.24468 9.98609 2
      vertex -1.91601 4.07172 2
    endloop
  endfacet
  facet normal -0 0 1
    outer loop
      vertex -4.47068 9.50068 2
      vertex -1.91601 4.07172 2
      vertex -3.24468 9.98609 2
    endloop
  endfacet
  facet normal 0 0 1
    outer loop
      vertex -1.91601 4.07172 2
      vertex -4.47068 9.50068 2
      vertex -2.41122 3.79947 2
    endloop
  endfacet
  facet normal -0 0 1
    outer loop
      vertex -5.62618 8.86544 2
      vertex -2.41122 3.79947 2
      vertex -4.47068 9.50068 2
    endloop
  endfacet
  facet normal 0 0 1
    outer loop
      vertex -2.41122 3.79947 2
      vertex -5.62618 8.86544 2
      vertex -2.86841 3.46731 2
    endloop
  endfacet
  facet normal -0 0 1
    outer loop
      vertex -6.69295 8.09039 2
      vertex -2.86841 3.46731 2
      vertex -5.62618 8.86544 2
    endloop
  endfacet
  facet normal 0 0 1
    outer loop
      vertex -2.86841 3.46731 2
      vertex -6.69295 8.09039 2
      vertex -3.28036 3.08046 2
    endloop
  endfacet
  facet normal -0 0 1
    outer loop
      vertex -7.65417 7.18774 2
      vertex -3.28036 3.08046 2
      vertex -6.69295 8.09039 2
    endloop
  endfacet
  facet normal 0 0 1
    outer loop
      vertex -3.28036 3.08046 2
      vertex -7.65417 7.18774 2
      vertex -3.64058 2.64503 2
    endloop
  endfacet
  facet normal -0 0 1
    outer loop
      vertex -8.49468 6.17174 2
      vertex -3.64058 2.64503 2
      vertex -7.65417 7.18774 2
    endloop
  endfacet
  facet normal 0 0 1
    outer loop
      vertex -3.64058 2.64503 2
      vertex -8.49468 6.17174 2
      vertex -3.94338 2.16789 2
    endloop
  endfacet
  facet normal -0 0 1
    outer loop
      vertex -9.20122 5.05841 2
      vertex -3.94338 2.16789 2
      vertex -8.49468 6.17174 2
    endloop
  endfacet
  facet normal 0 0 1
    outer loop
      vertex 9.20122 -5.05841 2
      vertex 3.94338 -2.16789 2
      vertex 8.49468 -6.17174 2
    endloop
  endfacet
  facet normal -0 0 1
    outer loop
      vertex 3.64058 -2.64503 2
      vertex 8.49468 -6.17174 2
      vertex 3.94338 -2.16789 2
    endloop
  endfacet
  facet normal 0 0 1
    outer loop
      vertex 8.49468 -6.17174 2
      vertex 3.64058 -2.64503 2
      vertex 7.65417 -7.18774 2
    endloop
  endfacet
  facet normal -0 0 1
    outer loop
      vertex 3.28036 -3.08046 2
      vertex 7.65417 -7.18774 2
      vertex 3.64058 -2.64503 2
    endloop
  endfacet
  facet normal 0 0 1
    outer loop
      vertex 7.65417 -7.18774 2
      vertex 3.28036 -3.08046 2
      vertex 6.69295 -8.09039 2
    endloop
  endfacet
  facet normal -0 0 1
    outer loop
      vertex 2.86841 -3.46731 2
      vertex 6.69295 -8.09039 2
      vertex 3.28036 -3.08046 2
    endloop
  endfacet
  facet normal 0 0 1
    outer loop
      vertex 6.69295 -8.09039 2
      vertex 2.86841 -3.46731 2
      vertex 5.62618 -8.86544 2
    endloop
  endfacet
  facet normal -0 0 1
    outer loop
      vertex 2.41122 -3.79947 2
      vertex 5.62618 -8.86544 2
      vertex 2.86841 -3.46731 2
    endloop
  endfacet
  facet normal 0 0 1
    outer loop
      vertex 5.62618 -8.86544 2
      vertex 2.41122 -3.79947 2
      vertex 4.47068 -9.50068 2
    endloop
  endfacet
  facet normal -0 0 1
    outer loop
      vertex 1.91601 -4.07172 2
      vertex 4.47068 -9.50068 2
      vertex 2.41122 -3.79947 2
    endloop
  endfacet
  facet normal 0 0 1
    outer loop
      vertex 4.47068 -9.50068 2
      vertex 1.91601 -4.07172 2
      vertex 3.24468 -9.98609 2
    endloop
  endfacet
  facet normal -0 0 1
    outer loop
      vertex 1.39058 -4.27975 2
      vertex 3.24468 -9.98609 2
      vertex 1.91601 -4.07172 2
    endloop
  endfacet
  facet normal 0 0 1
    outer loop
      vertex 3.24468 -9.98609 2
      vertex 1.39058 -4.27975 2
      vertex 1.9675 -10.314 2
    endloop
  endfacet
  facet normal -0 0 1
    outer loop
      vertex 0.843215 -4.42029 2
      vertex 1.9675 -10.314 2
      vertex 1.39058 -4.27975 2
    endloop
  endfacet
  facet normal 0 0 1
    outer loop
      vertex 0.843215 -4.42029 2
      vertex 0.6593 -10.4793 2
      vertex 1.9675 -10.314 2
    endloop
  endfacet
  facet normal -0 0 1
    outer loop
      vertex 0.282557 -4.49112 2
      vertex 0.6593 -10.4793 2
      vertex 0.843215 -4.42029 2
    endloop
  endfacet
  facet normal -0 0 1
    outer loop
      vertex -0.282557 -4.49112 2
      vertex 0.6593 -10.4793 2
      vertex 0.282557 -4.49112 2
    endloop
  endfacet
  facet normal 0 0 1
    outer loop
      vertex -0.282557 -4.49112 2
      vertex -0.6593 -10.4793 2
      vertex 0.6593 -10.4793 2
    endloop
  endfacet
  facet normal 0 0 1
    outer loop
      vertex -0.843215 -4.42029 2
      vertex -0.6593 -10.4793 2
      vertex -0.282557 -4.49112 2
    endloop
  endfacet
  facet normal 0 0 1
    outer loop
      vertex -1.9675 -10.314 2
      vertex -0.843215 -4.42029 2
      vertex -1.39058 -4.27975 2
    endloop
  endfacet
  facet normal 0 0 1
    outer loop
      vertex -3.24468 -9.98609 2
      vertex -1.39058 -4.27975 2
      vertex -1.91601 -4.07172 2
    endloop
  endfacet
  facet normal 0 0 1
    outer loop
      vertex -0.843215 -4.42029 2
      vertex -1.9675 -10.314 2
      vertex -0.6593 -10.4793 2
    endloop
  endfacet
  facet normal 0 0 1
    outer loop
      vertex -4.47068 -9.50068 2
      vertex -1.91601 -4.07172 2
      vertex -2.41122 -3.79947 2
    endloop
  endfacet
  facet normal 0 0 1
    outer loop
      vertex -5.62618 -8.86544 2
      vertex -2.41122 -3.79947 2
      vertex -2.86841 -3.46731 2
    endloop
  endfacet
  facet normal 0 0 1
    outer loop
      vertex -1.39058 -4.27975 2
      vertex -3.24468 -9.98609 2
      vertex -1.9675 -10.314 2
    endloop
  endfacet
  facet normal 0 0 1
    outer loop
      vertex -6.69295 -8.09039 2
      vertex -2.86841 -3.46731 2
      vertex -3.28036 -3.08046 2
    endloop
  endfacet
  facet normal 0 0 1
    outer loop
      vertex -7.65417 -7.18774 2
      vertex -3.28036 -3.08046 2
      vertex -3.64058 -2.64503 2
    endloop
  endfacet
  facet normal 0 0 1
    outer loop
      vertex -8.49468 -6.17174 2
      vertex -3.64058 -2.64503 2
      vertex -3.94338 -2.16789 2
    endloop
  endfacet
  facet normal 0 0 1
    outer loop
      vertex -9.20122 -5.05841 2
      vertex -3.94338 -2.16789 2
      vertex -4.18399 -1.65656 2
    endloop
  endfacet
  facet normal 0 0 1
    outer loop
      vertex -9.76265 -3.86531 2
      vertex -4.18399 -1.65656 2
      vertex -4.35862 -1.1191 2
    endloop
  endfacet
  facet normal 0 0 1
    outer loop
      vertex -10.1701 -2.61124 2
      vertex -4.35862 -1.1191 2
      vertex -4.46452 -0.563999 2
    endloop
  endfacet
  facet normal 0 0 1
    outer loop
      vertex -1.91601 -4.07172 2
      vertex -4.47068 -9.50068 2
      vertex -3.24468 -9.98609 2
    endloop
  endfacet
  facet normal 0 0 1
    outer loop
      vertex -10.4172 -1.316 2
      vertex -4.46452 -0.563999 2
      vertex -4.5 0 2
    endloop
  endfacet
  facet normal 0 0 1
    outer loop
      vertex -3.94338 2.16789 2
      vertex -9.20122 5.05841 2
      vertex -4.18399 1.65656 2
    endloop
  endfacet
  facet normal 0 0 1
    outer loop
      vertex -2.41122 -3.79947 2
      vertex -5.62618 -8.86544 2
      vertex -4.47068 -9.50068 2
    endloop
  endfacet
  facet normal -0 0 1
    outer loop
      vertex -9.76265 3.86531 2
      vertex -4.18399 1.65656 2
      vertex -9.20122 5.05841 2
    endloop
  endfacet
  facet normal 0 0 1
    outer loop
      vertex -2.86841 -3.46731 2
      vertex -6.69295 -8.09039 2
      vertex -5.62618 -8.86544 2
    endloop
  endfacet
  facet normal 0 0 1
    outer loop
      vertex -4.18399 1.65656 2
      vertex -9.76265 3.86531 2
      vertex -4.35862 1.1191 2
    endloop
  endfacet
  facet normal 0 0 1
    outer loop
      vertex -3.28036 -3.08046 2
      vertex -7.65417 -7.18774 2
      vertex -6.69295 -8.09039 2
    endloop
  endfacet
  facet normal -0 0 1
    outer loop
      vertex -10.1701 2.61124 2
      vertex -4.35862 1.1191 2
      vertex -9.76265 3.86531 2
    endloop
  endfacet
  facet normal 0 0 1
    outer loop
      vertex -3.64058 -2.64503 2
      vertex -8.49468 -6.17174 2
      vertex -7.65417 -7.18774 2
    endloop
  endfacet
  facet normal 0 0 1
    outer loop
      vertex -4.35862 1.1191 2
      vertex -10.1701 2.61124 2
      vertex -4.46452 0.563999 2
    endloop
  endfacet
  facet normal 0 0 1
    outer loop
      vertex -3.94338 -2.16789 2
      vertex -9.20122 -5.05841 2
      vertex -8.49468 -6.17174 2
    endloop
  endfacet
  facet normal -0 0 1
    outer loop
      vertex -10.4172 1.316 2
      vertex -4.46452 0.563999 2
      vertex -10.1701 2.61124 2
    endloop
  endfacet
  facet normal 0 0 1
    outer loop
      vertex -4.18399 -1.65656 2
      vertex -9.76265 -3.86531 2
      vertex -9.20122 -5.05841 2
    endloop
  endfacet
  facet normal 0 0 1
    outer loop
      vertex -4.46452 0.563999 2
      vertex -10.4172 1.316 2
      vertex -4.5 0 2
    endloop
  endfacet
  facet normal 0 0 1
    outer loop
      vertex -4.35862 -1.1191 2
      vertex -10.1701 -2.61124 2
      vertex -9.76265 -3.86531 2
    endloop
  endfacet
  facet normal 0 0 1
    outer loop
      vertex -10.5 0 2
      vertex -4.5 0 2
      vertex -10.4172 1.316 2
    endloop
  endfacet
  facet normal 0 0 1
    outer loop
      vertex -4.46452 -0.563999 2
      vertex -10.4172 -1.316 2
      vertex -10.1701 -2.61124 2
    endloop
  endfacet
  facet normal 0 0 1
    outer loop
      vertex -4.5 0 2
      vertex -10.5 0 2
      vertex -10.4172 -1.316 2
    endloop
  endfacet
  facet normal -0.982287 0.187381 0
    outer loop
      vertex -10.4172 1.316 0
      vertex -10.1701 2.61124 2
      vertex -10.1701 2.61124 0
    endloop
  endfacet
  facet normal -0.982287 0.187381 0
    outer loop
      vertex -10.1701 2.61124 2
      vertex -10.4172 1.316 0
      vertex -10.4172 1.316 2
    endloop
  endfacet
  facet normal -0.24869 0.968583 0
    outer loop
      vertex -1.9675 10.314 0
      vertex -3.24468 9.98609 2
      vertex -1.9675 10.314 2
    endloop
  endfacet
  facet normal -0.24869 0.968583 0
    outer loop
      vertex -3.24468 9.98609 2
      vertex -1.9675 10.314 0
      vertex -3.24468 9.98609 0
    endloop
  endfacet
  facet normal 0.904827 -0.425779 0
    outer loop
      vertex 9.20122 -5.05841 2
      vertex 9.76265 -3.86531 0
      vertex 9.76265 -3.86531 2
    endloop
  endfacet
  facet normal 0.904827 -0.425779 0
    outer loop
      vertex 9.76265 -3.86531 0
      vertex 9.20122 -5.05841 2
      vertex 9.20122 -5.05841 0
    endloop
  endfacet
  facet normal -0.481754 -0.876306 0
    outer loop
      vertex -5.62618 -8.86544 0
      vertex -4.47068 -9.50068 2
      vertex -5.62618 -8.86544 2
    endloop
  endfacet
  facet normal -0.481754 -0.876306 -0
    outer loop
      vertex -4.47068 -9.50068 2
      vertex -5.62618 -8.86544 0
      vertex -4.47068 -9.50068 0
    endloop
  endfacet
  facet normal -0.684547 -0.728969 0
    outer loop
      vertex -7.65417 -7.18774 0
      vertex -6.69295 -8.09039 2
      vertex -7.65417 -7.18774 2
    endloop
  endfacet
  facet normal -0.684547 -0.728969 -0
    outer loop
      vertex -6.69295 -8.09039 2
      vertex -7.65417 -7.18774 0
      vertex -6.69295 -8.09039 0
    endloop
  endfacet
  facet normal -0.998027 -0.0627909 0
    outer loop
      vertex -10.4172 -1.316 0
      vertex -10.5 0 2
      vertex -10.5 0 0
    endloop
  endfacet
  facet normal -0.998027 -0.0627909 0
    outer loop
      vertex -10.5 0 2
      vertex -10.4172 -1.316 0
      vertex -10.4172 -1.316 2
    endloop
  endfacet
  facet normal 0.481754 -0.876306 0
    outer loop
      vertex 4.47068 -9.50068 0
      vertex 5.62618 -8.86544 2
      vertex 4.47068 -9.50068 2
    endloop
  endfacet
  facet normal 0.481754 -0.876306 0
    outer loop
      vertex 5.62618 -8.86544 2
      vertex 4.47068 -9.50068 0
      vertex 5.62618 -8.86544 0
    endloop
  endfacet
  facet normal 0.951056 -0.309018 0
    outer loop
      vertex 9.76265 -3.86531 2
      vertex 10.1701 -2.61124 0
      vertex 10.1701 -2.61124 2
    endloop
  endfacet
  facet normal 0.951056 -0.309018 0
    outer loop
      vertex 10.1701 -2.61124 0
      vertex 9.76265 -3.86531 2
      vertex 9.76265 -3.86531 0
    endloop
  endfacet
  facet normal 0 -1 0
    outer loop
      vertex -0.6593 -10.4793 0
      vertex 0.6593 -10.4793 2
      vertex -0.6593 -10.4793 2
    endloop
  endfacet
  facet normal 0 -1 -0
    outer loop
      vertex 0.6593 -10.4793 2
      vertex -0.6593 -10.4793 0
      vertex 0.6593 -10.4793 0
    endloop
  endfacet
  facet normal -0.368124 -0.929777 0
    outer loop
      vertex -4.47068 -9.50068 0
      vertex -3.24468 -9.98609 2
      vertex -4.47068 -9.50068 2
    endloop
  endfacet
  facet normal -0.368124 -0.929777 -0
    outer loop
      vertex -3.24468 -9.98609 2
      vertex -4.47068 -9.50068 0
      vertex -3.24468 -9.98609 0
    endloop
  endfacet
  facet normal -0.587785 -0.809017 0
    outer loop
      vertex -6.69295 -8.09039 0
      vertex -5.62618 -8.86544 2
      vertex -6.69295 -8.09039 2
    endloop
  endfacet
  facet normal -0.587785 -0.809017 -0
    outer loop
      vertex -5.62618 -8.86544 2
      vertex -6.69295 -8.09039 0
      vertex -5.62618 -8.86544 0
    endloop
  endfacet
  facet normal -0.770513 -0.637424 0
    outer loop
      vertex -7.65417 -7.18774 0
      vertex -8.49468 -6.17174 2
      vertex -8.49468 -6.17174 0
    endloop
  endfacet
  facet normal -0.770513 -0.637424 0
    outer loop
      vertex -8.49468 -6.17174 2
      vertex -7.65417 -7.18774 0
      vertex -7.65417 -7.18774 2
    endloop
  endfacet
  facet normal 0 0 -1
    outer loop
      vertex 10.4172 -1.316 0
      vertex 10.4172 1.316 0
      vertex 10.5 0 0
    endloop
  endfacet
  facet normal 0 0 -1
    outer loop
      vertex 10.1701 -2.61124 0
      vertex 10.4172 1.316 0
      vertex 10.4172 -1.316 0
    endloop
  endfacet
  facet normal 0 0 -1
    outer loop
      vertex 10.1701 -2.61124 0
      vertex 10.1701 2.61124 0
      vertex 10.4172 1.316 0
    endloop
  endfacet
  facet normal 0 0 -1
    outer loop
      vertex 9.76265 -3.86531 0
      vertex 10.1701 2.61124 0
      vertex 10.1701 -2.61124 0
    endloop
  endfacet
  facet normal 0 0 -1
    outer loop
      vertex 9.76265 -3.86531 0
      vertex 9.76265 3.86531 0
      vertex 10.1701 2.61124 0
    endloop
  endfacet
  facet normal 0 0 -1
    outer loop
      vertex 9.20122 -5.05841 0
      vertex 9.76265 3.86531 0
      vertex 9.76265 -3.86531 0
    endloop
  endfacet
  facet normal 0 0 -1
    outer loop
      vertex 9.20122 -5.05841 0
      vertex 9.20122 5.05841 0
      vertex 9.76265 3.86531 0
    endloop
  endfacet
  facet normal 0 0 -1
    outer loop
      vertex 8.49468 -6.17174 0
      vertex 9.20122 5.05841 0
      vertex 9.20122 -5.05841 0
    endloop
  endfacet
  facet normal 0 0 -1
    outer loop
      vertex 8.49468 -6.17174 0
      vertex 8.49468 6.17174 0
      vertex 9.20122 5.05841 0
    endloop
  endfacet
  facet normal 0 0 -1
    outer loop
      vertex 7.65417 -7.18774 0
      vertex 8.49468 6.17174 0
      vertex 8.49468 -6.17174 0
    endloop
  endfacet
  facet normal 0 0 -1
    outer loop
      vertex 7.65417 -7.18774 0
      vertex 7.65417 7.18774 0
      vertex 8.49468 6.17174 0
    endloop
  endfacet
  facet normal 0 0 -1
    outer loop
      vertex 6.69295 -8.09039 0
      vertex 7.65417 7.18774 0
      vertex 7.65417 -7.18774 0
    endloop
  endfacet
  facet normal 0 0 -1
    outer loop
      vertex 6.69295 -8.09039 0
      vertex 6.69295 8.09039 0
      vertex 7.65417 7.18774 0
    endloop
  endfacet
  facet normal 0 0 -1
    outer loop
      vertex 5.62618 -8.86544 0
      vertex 6.69295 8.09039 0
      vertex 6.69295 -8.09039 0
    endloop
  endfacet
  facet normal 0 0 -1
    outer loop
      vertex 5.62618 -8.86544 0
      vertex 5.62618 8.86544 0
      vertex 6.69295 8.09039 0
    endloop
  endfacet
  facet normal 0 0 -1
    outer loop
      vertex 4.47068 -9.50068 0
      vertex 5.62618 8.86544 0
      vertex 5.62618 -8.86544 0
    endloop
  endfacet
  facet normal 0 0 -1
    outer loop
      vertex 4.47068 -9.50068 0
      vertex 4.47068 9.50068 0
      vertex 5.62618 8.86544 0
    endloop
  endfacet
  facet normal 0 0 -1
    outer loop
      vertex 3.24468 -9.98609 0
      vertex 4.47068 9.50068 0
      vertex 4.47068 -9.50068 0
    endloop
  endfacet
  facet normal 0 0 -1
    outer loop
      vertex 3.24468 -9.98609 0
      vertex 3.24468 9.98609 0
      vertex 4.47068 9.50068 0
    endloop
  endfacet
  facet normal 0 0 -1
    outer loop
      vertex 1.9675 -10.314 0
      vertex 3.24468 9.98609 0
      vertex 3.24468 -9.98609 0
    endloop
  endfacet
  facet normal 0 0 -1
    outer loop
      vertex 1.9675 -10.314 0
      vertex 1.9675 10.314 0
      vertex 3.24468 9.98609 0
    endloop
  endfacet
  facet normal 0 0 -1
    outer loop
      vertex 0.6593 -10.4793 0
      vertex 1.9675 10.314 0
      vertex 1.9675 -10.314 0
    endloop
  endfacet
  facet normal 0 0 -1
    outer loop
      vertex 0.6593 -10.4793 0
      vertex 0.6593 10.4793 0
      vertex 1.9675 10.314 0
    endloop
  endfacet
  facet normal 0 0 -1
    outer loop
      vertex -0.6593 -10.4793 0
      vertex 0.6593 10.4793 0
      vertex 0.6593 -10.4793 0
    endloop
  endfacet
  facet normal 0 0 -1
    outer loop
      vertex -0.6593 -10.4793 0
      vertex -0.6593 10.4793 0
      vertex 0.6593 10.4793 0
    endloop
  endfacet
  facet normal 0 0 -1
    outer loop
      vertex -1.9675 -10.314 0
      vertex -0.6593 10.4793 0
      vertex -0.6593 -10.4793 0
    endloop
  endfacet
  facet normal 0 0 -1
    outer loop
      vertex -1.9675 -10.314 0
      vertex -1.9675 10.314 0
      vertex -0.6593 10.4793 0
    endloop
  endfacet
  facet normal 0 0 -1
    outer loop
      vertex -3.24468 -9.98609 0
      vertex -1.9675 10.314 0
      vertex -1.9675 -10.314 0
    endloop
  endfacet
  facet normal 0 0 -1
    outer loop
      vertex -3.24468 -9.98609 0
      vertex -3.24468 9.98609 0
      vertex -1.9675 10.314 0
    endloop
  endfacet
  facet normal 0 0 -1
    outer loop
      vertex -4.47068 -9.50068 0
      vertex -3.24468 9.98609 0
      vertex -3.24468 -9.98609 0
    endloop
  endfacet
  facet normal 0 0 -1
    outer loop
      vertex -4.47068 -9.50068 0
      vertex -4.47068 9.50068 0
      vertex -3.24468 9.98609 0
    endloop
  endfacet
  facet normal 0 0 -1
    outer loop
      vertex -5.62618 -8.86544 0
      vertex -4.47068 9.50068 0
      vertex -4.47068 -9.50068 0
    endloop
  endfacet
  facet normal 0 0 -1
    outer loop
      vertex -5.62618 -8.86544 0
      vertex -5.62618 8.86544 0
      vertex -4.47068 9.50068 0
    endloop
  endfacet
  facet normal 0 0 -1
    outer loop
      vertex -6.69295 -8.09039 0
      vertex -5.62618 8.86544 0
      vertex -5.62618 -8.86544 0
    endloop
  endfacet
  facet normal 0 0 -1
    outer loop
      vertex -6.69295 -8.09039 0
      vertex -6.69295 8.09039 0
      vertex -5.62618 8.86544 0
    endloop
  endfacet
  facet normal 0 0 -1
    outer loop
      vertex -7.65417 -7.18774 0
      vertex -6.69295 8.09039 0
      vertex -6.69295 -8.09039 0
    endloop
  endfacet
  facet normal 0 0 -1
    outer loop
      vertex -7.65417 -7.18774 0
      vertex -7.65417 7.18774 0
      vertex -6.69295 8.09039 0
    endloop
  endfacet
  facet normal 0 0 -1
    outer loop
      vertex -8.49468 -6.17174 0
      vertex -7.65417 7.18774 0
      vertex -7.65417 -7.18774 0
    endloop
  endfacet
  facet normal 0 0 -1
    outer loop
      vertex -8.49468 -6.17174 0
      vertex -8.49468 6.17174 0
      vertex -7.65417 7.18774 0
    endloop
  endfacet
  facet normal 0 0 -1
    outer loop
      vertex -9.20122 -5.05841 0
      vertex -8.49468 6.17174 0
      vertex -8.49468 -6.17174 0
    endloop
  endfacet
  facet normal 0 0 -1
    outer loop
      vertex -9.20122 -5.05841 0
      vertex -9.20122 5.05841 0
      vertex -8.49468 6.17174 0
    endloop
  endfacet
  facet normal 0 0 -1
    outer loop
      vertex -9.76265 -3.86531 0
      vertex -9.20122 5.05841 0
      vertex -9.20122 -5.05841 0
    endloop
  endfacet
  facet normal 0 0 -1
    outer loop
      vertex -9.76265 -3.86531 0
      vertex -9.76265 3.86531 0
      vertex -9.20122 5.05841 0
    endloop
  endfacet
  facet normal 0 0 -1
    outer loop
      vertex -10.1701 -2.61124 0
      vertex -9.76265 3.86531 0
      vertex -9.76265 -3.86531 0
    endloop
  endfacet
  facet normal 0 0 -1
    outer loop
      vertex -10.1701 -2.61124 0
      vertex -10.1701 2.61124 0
      vertex -9.76265 3.86531 0
    endloop
  endfacet
  facet normal 0 0 -1
    outer loop
      vertex -10.4172 -1.316 0
      vertex -10.1701 2.61124 0
      vertex -10.1701 -2.61124 0
    endloop
  endfacet
  facet normal 0 0 -1
    outer loop
      vertex -10.4172 -1.316 0
      vertex -10.4172 1.316 0
      vertex -10.1701 2.61124 0
    endloop
  endfacet
  facet normal 0 -0 -1
    outer loop
      vertex -10.4172 1.316 0
      vertex -10.4172 -1.316 0
      vertex -10.5 0 0
    endloop
  endfacet
  facet normal -0.982287 -0.187381 0
    outer loop
      vertex -10.1701 -2.61124 0
      vertex -10.4172 -1.316 2
      vertex -10.4172 -1.316 0
    endloop
  endfacet
  facet normal -0.982287 -0.187381 0
    outer loop
      vertex -10.4172 -1.316 2
      vertex -10.1701 -2.61124 0
      vertex -10.1701 -2.61124 2
    endloop
  endfacet
  facet normal -0.24869 -0.968583 0
    outer loop
      vertex -3.24468 -9.98609 0
      vertex -1.9675 -10.314 2
      vertex -3.24468 -9.98609 2
    endloop
  endfacet
  facet normal -0.24869 -0.968583 -0
    outer loop
      vertex -1.9675 -10.314 2
      vertex -3.24468 -9.98609 0
      vertex -1.9675 -10.314 0
    endloop
  endfacet
  facet normal -0.125334 -0.992115 0
    outer loop
      vertex -1.9675 -10.314 0
      vertex -0.6593 -10.4793 2
      vertex -1.9675 -10.314 2
    endloop
  endfacet
  facet normal -0.125334 -0.992115 -0
    outer loop
      vertex -0.6593 -10.4793 2
      vertex -1.9675 -10.314 0
      vertex -0.6593 -10.4793 0
    endloop
  endfacet
  facet normal 0.998027 0.0627914 0
    outer loop
      vertex 4.5 0 5
      vertex 4.46452 0.563999 2
      vertex 4.46452 0.563999 5
    endloop
  endfacet
  facet normal 0.998027 0.0627914 0
    outer loop
      vertex 4.46452 0.563999 2
      vertex 4.5 0 5
      vertex 4.5 0 2
    endloop
  endfacet
  facet normal -0.998027 0.0627914 0
    outer loop
      vertex -4.5 0 2
      vertex -4.46452 0.563999 5
      vertex -4.46452 0.563999 2
    endloop
  endfacet
  facet normal -0.998027 0.0627914 0
    outer loop
      vertex -4.46452 0.563999 5
      vertex -4.5 0 2
      vertex -4.5 0 5
    endloop
  endfacet
  facet normal 0 1 -0
    outer loop
      vertex 0.282557 4.49112 2
      vertex -0.282557 4.49112 5
      vertex 0.282557 4.49112 5
    endloop
  endfacet
  facet normal 0 1 0
    outer loop
      vertex -0.282557 4.49112 5
      vertex 0.282557 4.49112 2
      vertex -0.282557 4.49112 2
    endloop
  endfacet
  facet normal 0 -1 0
    outer loop
      vertex -0.282557 -4.49112 2
      vertex 0.282557 -4.49112 5
      vertex -0.282557 -4.49112 5
    endloop
  endfacet
  facet normal 0 -1 -0
    outer loop
      vertex 0.282557 -4.49112 5
      vertex -0.282557 -4.49112 2
      vertex 0.282557 -4.49112 2
    endloop
  endfacet
  facet normal 0.684547 0.728969 -0
    outer loop
      vertex 3.28036 3.08046 2
      vertex 2.86841 3.46731 5
      vertex 3.28036 3.08046 5
    endloop
  endfacet
  facet normal 0.684547 0.728969 0
    outer loop
      vertex 2.86841 3.46731 5
      vertex 3.28036 3.08046 2
      vertex 2.86841 3.46731 2
    endloop
  endfacet
  facet normal -0.684547 0.728969 0
    outer loop
      vertex -2.86841 3.46731 2
      vertex -3.28036 3.08046 5
      vertex -2.86841 3.46731 5
    endloop
  endfacet
  facet normal -0.684547 0.728969 0
    outer loop
      vertex -3.28036 3.08046 5
      vertex -2.86841 3.46731 2
      vertex -3.28036 3.08046 2
    endloop
  endfacet
  facet normal -0.368125 0.929776 0
    outer loop
      vertex -1.39058 4.27975 2
      vertex -1.91601 4.07172 5
      vertex -1.39058 4.27975 5
    endloop
  endfacet
  facet normal -0.368125 0.929776 0
    outer loop
      vertex -1.91601 4.07172 5
      vertex -1.39058 4.27975 2
      vertex -1.91601 4.07172 2
    endloop
  endfacet
  facet normal 0.951056 -0.309017 0
    outer loop
      vertex 4.18399 -1.65656 5
      vertex 4.35862 -1.1191 2
      vertex 4.35862 -1.1191 5
    endloop
  endfacet
  facet normal 0.951056 -0.309017 0
    outer loop
      vertex 4.35862 -1.1191 2
      vertex 4.18399 -1.65656 5
      vertex 4.18399 -1.65656 2
    endloop
  endfacet
  facet normal 0.904827 0.425779 0
    outer loop
      vertex 4.18399 1.65656 5
      vertex 3.94338 2.16789 2
      vertex 3.94338 2.16789 5
    endloop
  endfacet
  facet normal 0.904827 0.425779 0
    outer loop
      vertex 3.94338 2.16789 2
      vertex 4.18399 1.65656 5
      vertex 4.18399 1.65656 2
    endloop
  endfacet
  facet normal 0.982287 0.187382 0
    outer loop
      vertex 4.46452 0.563999 5
      vertex 4.35862 1.1191 2
      vertex 4.35862 1.1191 5
    endloop
  endfacet
  facet normal 0.982287 0.187382 0
    outer loop
      vertex 4.35862 1.1191 2
      vertex 4.46452 0.563999 5
      vertex 4.46452 0.563999 2
    endloop
  endfacet
  facet normal 0.368125 0.929776 -0
    outer loop
      vertex 1.91601 4.07172 2
      vertex 1.39058 4.27975 5
      vertex 1.91601 4.07172 5
    endloop
  endfacet
  facet normal 0.368125 0.929776 0
    outer loop
      vertex 1.39058 4.27975 5
      vertex 1.91601 4.07172 2
      vertex 1.39058 4.27975 2
    endloop
  endfacet
  facet normal 0.248689 0.968583 -0
    outer loop
      vertex 1.39058 4.27975 2
      vertex 0.843215 4.42029 5
      vertex 1.39058 4.27975 5
    endloop
  endfacet
  facet normal 0.248689 0.968583 0
    outer loop
      vertex 0.843215 4.42029 5
      vertex 1.39058 4.27975 2
      vertex 0.843215 4.42029 2
    endloop
  endfacet
  facet normal 0.587785 0.809017 -0
    outer loop
      vertex 2.86841 3.46731 2
      vertex 2.41122 3.79947 5
      vertex 2.86841 3.46731 5
    endloop
  endfacet
  facet normal 0.587785 0.809017 0
    outer loop
      vertex 2.41122 3.79947 5
      vertex 2.86841 3.46731 2
      vertex 2.41122 3.79947 2
    endloop
  endfacet
  facet normal -0.904827 0.425779 0
    outer loop
      vertex -4.18399 1.65656 2
      vertex -3.94338 2.16789 5
      vertex -3.94338 2.16789 2
    endloop
  endfacet
  facet normal -0.904827 0.425779 0
    outer loop
      vertex -3.94338 2.16789 5
      vertex -4.18399 1.65656 2
      vertex -4.18399 1.65656 5
    endloop
  endfacet
  facet normal -0.951056 0.309017 0
    outer loop
      vertex -4.35862 1.1191 2
      vertex -4.18399 1.65656 5
      vertex -4.18399 1.65656 2
    endloop
  endfacet
  facet normal -0.951056 0.309017 0
    outer loop
      vertex -4.18399 1.65656 5
      vertex -4.35862 1.1191 2
      vertex -4.35862 1.1191 5
    endloop
  endfacet
  facet normal -0.481754 0.876307 0
    outer loop
      vertex -1.91601 4.07172 2
      vertex -2.41122 3.79947 5
      vertex -1.91601 4.07172 5
    endloop
  endfacet
  facet normal -0.481754 0.876307 0
    outer loop
      vertex -2.41122 3.79947 5
      vertex -1.91601 4.07172 2
      vertex -2.41122 3.79947 2
    endloop
  endfacet
  facet normal -0.248689 0.968583 0
    outer loop
      vertex -0.843215 4.42029 2
      vertex -1.39058 4.27975 5
      vertex -0.843215 4.42029 5
    endloop
  endfacet
  facet normal -0.248689 0.968583 0
    outer loop
      vertex -1.39058 4.27975 5
      vertex -0.843215 4.42029 2
      vertex -1.39058 4.27975 2
    endloop
  endfacet
  facet normal 0.368125 -0.929776 0
    outer loop
      vertex 1.39058 -4.27975 2
      vertex 1.91601 -4.07172 5
      vertex 1.39058 -4.27975 5
    endloop
  endfacet
  facet normal 0.368125 -0.929776 0
    outer loop
      vertex 1.91601 -4.07172 5
      vertex 1.39058 -4.27975 2
      vertex 1.91601 -4.07172 2
    endloop
  endfacet
  facet normal 0.951056 0.309017 0
    outer loop
      vertex 4.35862 1.1191 5
      vertex 4.18399 1.65656 2
      vertex 4.18399 1.65656 5
    endloop
  endfacet
  facet normal 0.951056 0.309017 0
    outer loop
      vertex 4.18399 1.65656 2
      vertex 4.35862 1.1191 5
      vertex 4.35862 1.1191 2
    endloop
  endfacet
  facet normal 0.770513 0.637424 0
    outer loop
      vertex 3.64058 2.64503 5
      vertex 3.28036 3.08046 2
      vertex 3.28036 3.08046 5
    endloop
  endfacet
  facet normal 0.770513 0.637424 0
    outer loop
      vertex 3.28036 3.08046 2
      vertex 3.64058 2.64503 5
      vertex 3.64058 2.64503 2
    endloop
  endfacet
  facet normal 0.844328 0.535827 0
    outer loop
      vertex 3.94338 2.16789 5
      vertex 3.64058 2.64503 2
      vertex 3.64058 2.64503 5
    endloop
  endfacet
  facet normal 0.844328 0.535827 0
    outer loop
      vertex 3.64058 2.64503 2
      vertex 3.94338 2.16789 5
      vertex 3.94338 2.16789 2
    endloop
  endfacet
  facet normal 0.125333 0.992115 -0
    outer loop
      vertex 0.843215 4.42029 2
      vertex 0.282557 4.49112 5
      vertex 0.843215 4.42029 5
    endloop
  endfacet
  facet normal 0.125333 0.992115 0
    outer loop
      vertex 0.282557 4.49112 5
      vertex 0.843215 4.42029 2
      vertex 0.282557 4.49112 2
    endloop
  endfacet
  facet normal 0.481754 0.876307 -0
    outer loop
      vertex 2.41122 3.79947 2
      vertex 1.91601 4.07172 5
      vertex 2.41122 3.79947 5
    endloop
  endfacet
  facet normal 0.481754 0.876307 0
    outer loop
      vertex 1.91601 4.07172 5
      vertex 2.41122 3.79947 2
      vertex 1.91601 4.07172 2
    endloop
  endfacet
  facet normal -0.844328 0.535827 0
    outer loop
      vertex -3.94338 2.16789 2
      vertex -3.64058 2.64503 5
      vertex -3.64058 2.64503 2
    endloop
  endfacet
  facet normal -0.844328 0.535827 0
    outer loop
      vertex -3.64058 2.64503 5
      vertex -3.94338 2.16789 2
      vertex -3.94338 2.16789 5
    endloop
  endfacet
  facet normal -0.770513 0.637424 0
    outer loop
      vertex -3.64058 2.64503 2
      vertex -3.28036 3.08046 5
      vertex -3.28036 3.08046 2
    endloop
  endfacet
  facet normal -0.770513 0.637424 0
    outer loop
      vertex -3.28036 3.08046 5
      vertex -3.64058 2.64503 2
      vertex -3.64058 2.64503 5
    endloop
  endfacet
  facet normal -0.982287 0.187382 0
    outer loop
      vertex -4.46452 0.563999 2
      vertex -4.35862 1.1191 5
      vertex -4.35862 1.1191 2
    endloop
  endfacet
  facet normal -0.982287 0.187382 0
    outer loop
      vertex -4.35862 1.1191 5
      vertex -4.46452 0.563999 2
      vertex -4.46452 0.563999 5
    endloop
  endfacet
  facet normal 0 0 1
    outer loop
      vertex 4.46452 0.563999 5
      vertex 4.46452 -0.563999 5
      vertex 4.5 0 5
    endloop
  endfacet
  facet normal 0 0 1
    outer loop
      vertex 4.35862 1.1191 5
      vertex 4.46452 -0.563999 5
      vertex 4.46452 0.563999 5
    endloop
  endfacet
  facet normal 0 0 1
    outer loop
      vertex 4.35862 1.1191 5
      vertex 4.35862 -1.1191 5
      vertex 4.46452 -0.563999 5
    endloop
  endfacet
  facet normal 0 0 1
    outer loop
      vertex 4.18399 1.65656 5
      vertex 4.35862 -1.1191 5
      vertex 4.35862 1.1191 5
    endloop
  endfacet
  facet normal 0 0 1
    outer loop
      vertex 4.18399 1.65656 5
      vertex 4.18399 -1.65656 5
      vertex 4.35862 -1.1191 5
    endloop
  endfacet
  facet normal 0 0 1
    outer loop
      vertex 3.94338 2.16789 5
      vertex 4.18399 -1.65656 5
      vertex 4.18399 1.65656 5
    endloop
  endfacet
  facet normal 0 0 1
    outer loop
      vertex 3.94338 2.16789 5
      vertex 3.94338 -2.16789 5
      vertex 4.18399 -1.65656 5
    endloop
  endfacet
  facet normal 0 0 1
    outer loop
      vertex 3.64058 2.64503 5
      vertex 3.94338 -2.16789 5
      vertex 3.94338 2.16789 5
    endloop
  endfacet
  facet normal 0 0 1
    outer loop
      vertex 3.64058 2.64503 5
      vertex 3.64058 -2.64503 5
      vertex 3.94338 -2.16789 5
    endloop
  endfacet
  facet normal 0 0 1
    outer loop
      vertex 3.28036 3.08046 5
      vertex 3.64058 -2.64503 5
      vertex 3.64058 2.64503 5
    endloop
  endfacet
  facet normal 0 0 1
    outer loop
      vertex 3.28036 3.08046 5
      vertex 3.28036 -3.08046 5
      vertex 3.64058 -2.64503 5
    endloop
  endfacet
  facet normal 0 0 1
    outer loop
      vertex 2.86841 3.46731 5
      vertex 3.28036 -3.08046 5
      vertex 3.28036 3.08046 5
    endloop
  endfacet
  facet normal 0 0 1
    outer loop
      vertex 2.86841 3.46731 5
      vertex 2.86841 -3.46731 5
      vertex 3.28036 -3.08046 5
    endloop
  endfacet
  facet normal 0 0 1
    outer loop
      vertex 2.41122 3.79947 5
      vertex 2.86841 -3.46731 5
      vertex 2.86841 3.46731 5
    endloop
  endfacet
  facet normal 0 0 1
    outer loop
      vertex 2.41122 3.79947 5
      vertex 2.41122 -3.79947 5
      vertex 2.86841 -3.46731 5
    endloop
  endfacet
  facet normal 0 0 1
    outer loop
      vertex 1.91601 4.07172 5
      vertex 2.41122 -3.79947 5
      vertex 2.41122 3.79947 5
    endloop
  endfacet
  facet normal 0 0 1
    outer loop
      vertex 1.91601 4.07172 5
      vertex 1.91601 -4.07172 5
      vertex 2.41122 -3.79947 5
    endloop
  endfacet
  facet normal 0 0 1
    outer loop
      vertex 1.39058 4.27975 5
      vertex 1.91601 -4.07172 5
      vertex 1.91601 4.07172 5
    endloop
  endfacet
  facet normal 0 0 1
    outer loop
      vertex 1.39058 4.27975 5
      vertex 1.39058 -4.27975 5
      vertex 1.91601 -4.07172 5
    endloop
  endfacet
  facet normal 0 0 1
    outer loop
      vertex 0.843215 4.42029 5
      vertex 1.39058 -4.27975 5
      vertex 1.39058 4.27975 5
    endloop
  endfacet
  facet normal 0 0 1
    outer loop
      vertex 0.843215 4.42029 5
      vertex 0.843215 -4.42029 5
      vertex 1.39058 -4.27975 5
    endloop
  endfacet
  facet normal 0 0 1
    outer loop
      vertex 0.282557 4.49112 5
      vertex 0.843215 -4.42029 5
      vertex 0.843215 4.42029 5
    endloop
  endfacet
  facet normal 0 0 1
    outer loop
      vertex 0.282557 4.49112 5
      vertex 0.282557 -4.49112 5
      vertex 0.843215 -4.42029 5
    endloop
  endfacet
  facet normal -0 0 1
    outer loop
      vertex -0.282557 4.49112 5
      vertex 0.282557 -4.49112 5
      vertex 0.282557 4.49112 5
    endloop
  endfacet
  facet normal 0 0 1
    outer loop
      vertex -0.282557 4.49112 5
      vertex -0.282557 -4.49112 5
      vertex 0.282557 -4.49112 5
    endloop
  endfacet
  facet normal -0 0 1
    outer loop
      vertex -0.843215 4.42029 5
      vertex -0.282557 -4.49112 5
      vertex -0.282557 4.49112 5
    endloop
  endfacet
  facet normal 0 0 1
    outer loop
      vertex -0.843215 4.42029 5
      vertex -0.843215 -4.42029 5
      vertex -0.282557 -4.49112 5
    endloop
  endfacet
  facet normal -0 0 1
    outer loop
      vertex -1.39058 4.27975 5
      vertex -0.843215 -4.42029 5
      vertex -0.843215 4.42029 5
    endloop
  endfacet
  facet normal 0 0 1
    outer loop
      vertex -1.39058 4.27975 5
      vertex -1.39058 -4.27975 5
      vertex -0.843215 -4.42029 5
    endloop
  endfacet
  facet normal -0 0 1
    outer loop
      vertex -1.91601 4.07172 5
      vertex -1.39058 -4.27975 5
      vertex -1.39058 4.27975 5
    endloop
  endfacet
  facet normal 0 0 1
    outer loop
      vertex -1.91601 4.07172 5
      vertex -1.91601 -4.07172 5
      vertex -1.39058 -4.27975 5
    endloop
  endfacet
  facet normal -0 0 1
    outer loop
      vertex -2.41122 3.79947 5
      vertex -1.91601 -4.07172 5
      vertex -1.91601 4.07172 5
    endloop
  endfacet
  facet normal 0 0 1
    outer loop
      vertex -2.41122 3.79947 5
      vertex -2.41122 -3.79947 5
      vertex -1.91601 -4.07172 5
    endloop
  endfacet
  facet normal -0 0 1
    outer loop
      vertex -2.86841 3.46731 5
      vertex -2.41122 -3.79947 5
      vertex -2.41122 3.79947 5
    endloop
  endfacet
  facet normal 0 0 1
    outer loop
      vertex -2.86841 3.46731 5
      vertex -2.86841 -3.46731 5
      vertex -2.41122 -3.79947 5
    endloop
  endfacet
  facet normal -0 0 1
    outer loop
      vertex -3.28036 3.08046 5
      vertex -2.86841 -3.46731 5
      vertex -2.86841 3.46731 5
    endloop
  endfacet
  facet normal 0 0 1
    outer loop
      vertex -3.28036 3.08046 5
      vertex -3.28036 -3.08046 5
      vertex -2.86841 -3.46731 5
    endloop
  endfacet
  facet normal -0 0 1
    outer loop
      vertex -3.64058 2.64503 5
      vertex -3.28036 -3.08046 5
      vertex -3.28036 3.08046 5
    endloop
  endfacet
  facet normal 0 0 1
    outer loop
      vertex -3.64058 2.64503 5
      vertex -3.64058 -2.64503 5
      vertex -3.28036 -3.08046 5
    endloop
  endfacet
  facet normal -0 0 1
    outer loop
      vertex -3.94338 2.16789 5
      vertex -3.64058 -2.64503 5
      vertex -3.64058 2.64503 5
    endloop
  endfacet
  facet normal 0 0 1
    outer loop
      vertex -3.94338 2.16789 5
      vertex -3.94338 -2.16789 5
      vertex -3.64058 -2.64503 5
    endloop
  endfacet
  facet normal -0 0 1
    outer loop
      vertex -4.18399 1.65656 5
      vertex -3.94338 -2.16789 5
      vertex -3.94338 2.16789 5
    endloop
  endfacet
  facet normal 0 0 1
    outer loop
      vertex -4.18399 1.65656 5
      vertex -4.18399 -1.65656 5
      vertex -3.94338 -2.16789 5
    endloop
  endfacet
  facet normal -0 0 1
    outer loop
      vertex -4.35862 1.1191 5
      vertex -4.18399 -1.65656 5
      vertex -4.18399 1.65656 5
    endloop
  endfacet
  facet normal 0 0 1
    outer loop
      vertex -4.35862 1.1191 5
      vertex -4.35862 -1.1191 5
      vertex -4.18399 -1.65656 5
    endloop
  endfacet
  facet normal -0 0 1
    outer loop
      vertex -4.46452 0.563999 5
      vertex -4.35862 -1.1191 5
      vertex -4.35862 1.1191 5
    endloop
  endfacet
  facet normal 0 0 1
    outer loop
      vertex -4.46452 0.563999 5
      vertex -4.46452 -0.563999 5
      vertex -4.35862 -1.1191 5
    endloop
  endfacet
  facet normal 0 -0 1
    outer loop
      vertex -4.46452 -0.563999 5
      vertex -4.46452 0.563999 5
      vertex -4.5 0 5
    endloop
  endfacet
  facet normal -0.587785 0.809017 0
    outer loop
      vertex -2.41122 3.79947 2
      vertex -2.86841 3.46731 5
      vertex -2.41122 3.79947 5
    endloop
  endfacet
  facet normal -0.587785 0.809017 0
    outer loop
      vertex -2.86841 3.46731 5
      vertex -2.41122 3.79947 2
      vertex -2.86841 3.46731 2
    endloop
  endfacet
  facet normal -0.125333 0.992115 0
    outer loop
      vertex -0.282557 4.49112 2
      vertex -0.843215 4.42029 5
      vertex -0.282557 4.49112 5
    endloop
  endfacet
  facet normal -0.125333 0.992115 0
    outer loop
      vertex -0.843215 4.42029 5
      vertex -0.282557 4.49112 2
      vertex -0.843215 4.42029 2
    endloop
  endfacet
  facet normal 0.998027 -0.0627914 0
    outer loop
      vertex 4.46452 -0.563999 5
      vertex 4.5 0 2
      vertex 4.5 0 5
    endloop
  endfacet
  facet normal 0.998027 -0.0627914 0
    outer loop
      vertex 4.5 0 2
      vertex 4.46452 -0.563999 5
      vertex 4.46452 -0.563999 2
    endloop
  endfacet
  facet normal 0.844328 -0.535827 0
    outer loop
      vertex 3.64058 -2.64503 5
      vertex 3.94338 -2.16789 2
      vertex 3.94338 -2.16789 5
    endloop
  endfacet
  facet normal 0.844328 -0.535827 0
    outer loop
      vertex 3.94338 -2.16789 2
      vertex 3.64058 -2.64503 5
      vertex 3.64058 -2.64503 2
    endloop
  endfacet
  facet normal 0.982287 -0.187382 0
    outer loop
      vertex 4.35862 -1.1191 5
      vertex 4.46452 -0.563999 2
      vertex 4.46452 -0.563999 5
    endloop
  endfacet
  facet normal 0.982287 -0.187382 0
    outer loop
      vertex 4.46452 -0.563999 2
      vertex 4.35862 -1.1191 5
      vertex 4.35862 -1.1191 2
    endloop
  endfacet
  facet normal -0.904827 -0.425779 0
    outer loop
      vertex -3.94338 -2.16789 2
      vertex -4.18399 -1.65656 5
      vertex -4.18399 -1.65656 2
    endloop
  endfacet
  facet normal -0.904827 -0.425779 0
    outer loop
      vertex -4.18399 -1.65656 5
      vertex -3.94338 -2.16789 2
      vertex -3.94338 -2.16789 5
    endloop
  endfacet
  facet normal -0.844328 -0.535827 0
    outer loop
      vertex -3.64058 -2.64503 2
      vertex -3.94338 -2.16789 5
      vertex -3.94338 -2.16789 2
    endloop
  endfacet
  facet normal -0.844328 -0.535827 0
    outer loop
      vertex -3.94338 -2.16789 5
      vertex -3.64058 -2.64503 2
      vertex -3.64058 -2.64503 5
    endloop
  endfacet
  facet normal 0.587785 -0.809017 0
    outer loop
      vertex 2.41122 -3.79947 2
      vertex 2.86841 -3.46731 5
      vertex 2.41122 -3.79947 5
    endloop
  endfacet
  facet normal 0.587785 -0.809017 0
    outer loop
      vertex 2.86841 -3.46731 5
      vertex 2.41122 -3.79947 2
      vertex 2.86841 -3.46731 2
    endloop
  endfacet
  facet normal 0.904827 -0.425779 0
    outer loop
      vertex 3.94338 -2.16789 5
      vertex 4.18399 -1.65656 2
      vertex 4.18399 -1.65656 5
    endloop
  endfacet
  facet normal 0.904827 -0.425779 0
    outer loop
      vertex 4.18399 -1.65656 2
      vertex 3.94338 -2.16789 5
      vertex 3.94338 -2.16789 2
    endloop
  endfacet
  facet normal -0.248689 -0.968583 0
    outer loop
      vertex -1.39058 -4.27975 2
      vertex -0.843215 -4.42029 5
      vertex -1.39058 -4.27975 5
    endloop
  endfacet
  facet normal -0.248689 -0.968583 -0
    outer loop
      vertex -0.843215 -4.42029 5
      vertex -1.39058 -4.27975 2
      vertex -0.843215 -4.42029 2
    endloop
  endfacet
  facet normal -0.770513 -0.637424 0
    outer loop
      vertex -3.28036 -3.08046 2
      vertex -3.64058 -2.64503 5
      vertex -3.64058 -2.64503 2
    endloop
  endfacet
  facet normal -0.770513 -0.637424 0
    outer loop
      vertex -3.64058 -2.64503 5
      vertex -3.28036 -3.08046 2
      vertex -3.28036 -3.08046 5
    endloop
  endfacet
  facet normal -0.951056 -0.309017 0
    outer loop
      vertex -4.18399 -1.65656 2
      vertex -4.35862 -1.1191 5
      vertex -4.35862 -1.1191 2
    endloop
  endfacet
  facet normal -0.951056 -0.309017 0
    outer loop
      vertex -4.35862 -1.1191 5
      vertex -4.18399 -1.65656 2
      vertex -4.18399 -1.65656 5
    endloop
  endfacet
  facet normal 0.770513 -0.637424 0
    outer loop
      vertex 3.28036 -3.08046 5
      vertex 3.64058 -2.64503 2
      vertex 3.64058 -2.64503 5
    endloop
  endfacet
  facet normal 0.770513 -0.637424 0
    outer loop
      vertex 3.64058 -2.64503 2
      vertex 3.28036 -3.08046 5
      vertex 3.28036 -3.08046 2
    endloop
  endfacet
  facet normal 0.481754 -0.876307 0
    outer loop
      vertex 1.91601 -4.07172 2
      vertex 2.41122 -3.79947 5
      vertex 1.91601 -4.07172 5
    endloop
  endfacet
  facet normal 0.481754 -0.876307 0
    outer loop
      vertex 2.41122 -3.79947 5
      vertex 1.91601 -4.07172 2
      vertex 2.41122 -3.79947 2
    endloop
  endfacet
  facet normal -0.125333 -0.992115 0
    outer loop
      vertex -0.843215 -4.42029 2
      vertex -0.282557 -4.49112 5
      vertex -0.843215 -4.42029 5
    endloop
  endfacet
  facet normal -0.125333 -0.992115 -0
    outer loop
      vertex -0.282557 -4.49112 5
      vertex -0.843215 -4.42029 2
      vertex -0.282557 -4.49112 2
    endloop
  endfacet
  facet normal -0.982287 -0.187382 0
    outer loop
      vertex -4.35862 -1.1191 2
      vertex -4.46452 -0.563999 5
      vertex -4.46452 -0.563999 2
    endloop
  endfacet
  facet normal -0.982287 -0.187382 0
    outer loop
      vertex -4.46452 -0.563999 5
      vertex -4.35862 -1.1191 2
      vertex -4.35862 -1.1191 5
    endloop
  endfacet
  facet normal -0.998027 -0.0627914 0
    outer loop
      vertex -4.46452 -0.563999 2
      vertex -4.5 0 5
      vertex -4.5 0 2
    endloop
  endfacet
  facet normal -0.998027 -0.0627914 0
    outer loop
      vertex -4.5 0 5
      vertex -4.46452 -0.563999 2
      vertex -4.46452 -0.563999 5
    endloop
  endfacet
  facet normal 0.684547 -0.728969 0
    outer loop
      vertex 2.86841 -3.46731 2
      vertex 3.28036 -3.08046 5
      vertex 2.86841 -3.46731 5
    endloop
  endfacet
  facet normal 0.684547 -0.728969 0
    outer loop
      vertex 3.28036 -3.08046 5
      vertex 2.86841 -3.46731 2
      vertex 3.28036 -3.08046 2
    endloop
  endfacet
  facet normal 0.248689 -0.968583 0
    outer loop
      vertex 0.843215 -4.42029 2
      vertex 1.39058 -4.27975 5
      vertex 0.843215 -4.42029 5
    endloop
  endfacet
  facet normal 0.248689 -0.968583 0
    outer loop
      vertex 1.39058 -4.27975 5
      vertex 0.843215 -4.42029 2
      vertex 1.39058 -4.27975 2
    endloop
  endfacet
  facet normal 0.125333 -0.992115 0
    outer loop
      vertex 0.282557 -4.49112 2
      vertex 0.843215 -4.42029 5
      vertex 0.282557 -4.49112 5
    endloop
  endfacet
  facet normal 0.125333 -0.992115 0
    outer loop
      vertex 0.843215 -4.42029 5
      vertex 0.282557 -4.49112 2
      vertex 0.843215 -4.42029 2
    endloop
  endfacet
  facet normal -0.684547 -0.728969 0
    outer loop
      vertex -3.28036 -3.08046 2
      vertex -2.86841 -3.46731 5
      vertex -3.28036 -3.08046 5
    endloop
  endfacet
  facet normal -0.684547 -0.728969 -0
    outer loop
      vertex -2.86841 -3.46731 5
      vertex -3.28036 -3.08046 2
      vertex -2.86841 -3.46731 2
    endloop
  endfacet
  facet normal -0.481754 -0.876307 0
    outer loop
      vertex -2.41122 -3.79947 2
      vertex -1.91601 -4.07172 5
      vertex -2.41122 -3.79947 5
    endloop
  endfacet
  facet normal -0.481754 -0.876307 -0
    outer loop
      vertex -1.91601 -4.07172 5
      vertex -2.41122 -3.79947 2
      vertex -1.91601 -4.07172 2
    endloop
  endfacet
  facet normal -0.587785 -0.809017 0
    outer loop
      vertex -2.86841 -3.46731 2
      vertex -2.41122 -3.79947 5
      vertex -2.86841 -3.46731 5
    endloop
  endfacet
  facet normal -0.587785 -0.809017 -0
    outer loop
      vertex -2.41122 -3.79947 5
      vertex -2.86841 -3.46731 2
      vertex -2.41122 -3.79947 2
    endloop
  endfacet
  facet normal -0.368125 -0.929776 0
    outer loop
      vertex -1.91601 -4.07172 2
      vertex -1.39058 -4.27975 5
      vertex -1.91601 -4.07172 5
    endloop
  endfacet
  facet normal -0.368125 -0.929776 -0
    outer loop
      vertex -1.39058 -4.27975 5
      vertex -1.91601 -4.07172 2
      vertex -1.39058 -4.27975 2
    endloop
  endfacet
endsolid OpenSCAD_Model
